<svg xmlns="http://www.w3.org/2000/svg" viewBox="-18 -18 559 533" role="img" aria-labelledby="sun-title sun-desc">
  <style>
    .sun-shape {
      fill: #ffdf25;
      stroke: #ffdf25;
      stroke-width: 12px;
      stroke-linejoin: round;
      stroke-linecap: round;
      paint-order: stroke fill;
    }
  </style>
  <title id="sun-title">Hand-drawn smiling sun</title>
  <desc id="sun-desc">A yellow hand-drawn smiling sun with eight rays, traced from the original artwork. Transparent background.</desc>
  <path class="sun-shape" fill-rule="evenodd" clip-rule="evenodd"
        d="M 320 399 L 315 403 L 318 424 L 322 431 L 325 440 L 325 444 L 327 448 L 327 453 L 331 467 L 331 472 L 335 476 L 341 478 L 345 475 L 346 465 L 344 460 L 343 450 L 338 438 L 334 414 L 329 404 L 325 400 Z M 197 376 L 194 374 L 188 375 L 176 387 L 157 398 L 142 413 L 140 417 L 140 421 L 143 424 L 150 424 L 155 421 L 164 410 L 181 400 L 187 394 L 192 392 L 198 384 Z M 413 307 L 413 311 L 415 315 L 418 317 L 426 319 L 439 326 L 445 327 L 452 331 L 459 333 L 463 336 L 474 339 L 488 346 L 491 346 L 496 342 L 496 335 L 481 326 L 469 323 L 465 320 L 454 317 L 445 312 L 442 312 L 439 309 L 423 303 L 417 303 Z M 119 300 L 118 298 L 114 296 L 84 297 L 76 300 L 69 300 L 66 302 L 42 305 L 41 307 L 22 309 L 18 313 L 18 317 L 20 320 L 24 322 L 28 322 L 29 321 L 40 321 L 49 317 L 66 316 L 74 313 L 81 313 L 87 311 L 109 311 L 118 307 Z M 504 183 L 499 178 L 461 182 L 454 185 L 449 185 L 445 187 L 431 189 L 428 191 L 427 196 L 429 200 L 431 201 L 445 201 L 462 196 L 468 196 L 473 194 L 481 194 L 482 193 L 492 193 L 496 191 L 500 191 L 503 188 Z M 65 143 L 65 148 L 67 151 L 102 165 L 120 167 L 125 166 L 128 163 L 128 157 L 122 153 L 113 153 L 97 149 L 93 146 L 79 142 L 74 139 L 70 139 Z M 240 125 L 223 132 L 209 142 L 208 145 L 203 149 L 202 153 L 197 161 L 196 166 L 193 169 L 183 187 L 182 193 L 180 196 L 180 200 L 175 213 L 173 225 L 169 234 L 169 249 L 170 250 L 173 284 L 180 300 L 196 324 L 204 332 L 220 344 L 226 346 L 244 357 L 256 362 L 267 363 L 276 366 L 283 366 L 284 367 L 295 367 L 296 366 L 298 367 L 317 361 L 322 361 L 340 352 L 342 349 L 360 336 L 368 327 L 376 313 L 380 302 L 398 269 L 400 243 L 401 242 L 401 216 L 395 202 L 380 180 L 361 163 L 356 161 L 340 150 L 336 149 L 324 142 L 289 130 L 282 125 L 268 124 L 267 123 Z M 242 139 L 269 139 L 275 143 L 287 144 L 327 159 L 354 176 L 367 189 L 384 212 L 387 218 L 387 252 L 385 257 L 385 263 L 382 271 L 379 274 L 376 281 L 370 288 L 369 294 L 359 314 L 347 329 L 300 353 L 281 353 L 272 350 L 260 349 L 257 347 L 254 347 L 245 341 L 241 340 L 234 335 L 227 332 L 217 325 L 206 314 L 200 304 L 194 297 L 187 281 L 186 261 L 183 248 L 183 235 L 186 229 L 189 216 L 193 208 L 193 202 L 196 192 L 210 168 L 211 163 L 216 154 L 230 144 Z M 228 254 L 230 265 L 239 276 L 250 283 L 254 287 L 272 295 L 301 296 L 318 293 L 329 284 L 337 265 L 337 261 L 331 257 L 326 259 L 322 263 L 318 274 L 315 277 L 301 282 L 283 282 L 282 281 L 275 281 L 263 276 L 259 272 L 252 268 L 244 260 L 244 258 L 239 250 L 232 249 Z M 250 191 L 246 190 L 241 192 L 237 197 L 237 201 L 242 205 L 246 205 L 250 203 L 253 199 L 253 195 Z M 301 185 L 300 195 L 303 198 L 310 199 L 316 195 L 317 189 L 312 184 L 303 183 Z M 292 170 L 293 174 L 296 177 L 310 176 L 316 178 L 323 178 L 328 171 L 322 165 L 314 162 L 299 163 Z M 245 162 L 243 160 L 234 160 L 232 162 L 228 163 L 214 176 L 213 179 L 214 186 L 219 189 L 223 188 L 234 176 L 245 170 L 246 168 Z M 394 66 L 390 65 L 386 67 L 381 73 L 378 74 L 369 82 L 363 89 L 358 100 L 358 106 L 360 109 L 367 110 L 373 102 L 375 96 L 393 81 L 397 73 L 396 68 Z M 238 18 L 233 23 L 233 62 L 234 63 L 233 85 L 234 89 L 238 93 L 242 93 L 248 85 L 248 40 L 247 39 L 248 37 L 247 36 L 247 23 L 246 21 L 242 18 Z"/>
</svg>
